<svg xmlns="http://www.w3.org/2000/svg" width="24.915" height="21"><g fill="#2e2e2e"><path data-name="Path 7" d="M.356 6.073A.356.356 0 010 5.717V3.204A1.424 1.424 0 011.424 1.78h1.523a.356.356 0 010 .712H1.424a.712.712 0 00-.712.712v2.513a.356.356 0 01-.356.356z"/><path data-name="Path 8" d="M.356 13.148A.356.356 0 010 12.792v-1.057a.356.356 0 01.712 0v1.057a.356.356 0 01-.356.356z"/><path data-name="Path 9" d="M2.947 19.221H1.424A1.424 1.424 0 010 17.797v-2.509a.356.356 0 11.712 0v2.513a.712.712 0 00.712.712h1.523a.356.356 0 110 .712z"/><path data-name="Path 10" d="M.356 9.6A.356.356 0 010 9.244V8.208a.356.356 0 11.712 0v1.036a.356.356 0 01-.356.356z"/><path data-name="Path 11" d="M23.492 19.221H9.403a.356.356 0 010-.712h14.089a.712.712 0 00.712-.712V3.204a.712.712 0 00-.712-.712H9.403a.356.356 0 010-.712h14.089a1.424 1.424 0 011.424 1.424v14.593a1.424 1.424 0 01-1.424 1.424z"/><path data-name="Path 12" d="M8.394 21H3.956a1.366 1.366 0 01-1.364-1.364V1.364A1.366 1.366 0 013.956 0h4.438a1.366 1.366 0 011.365 1.364v18.272A1.366 1.366 0 018.394 21zM3.956.712a.653.653 0 00-.652.652v18.272a.653.653 0 00.652.652h4.438a.653.653 0 00.653-.652V1.364a.653.653 0 00-.653-.652z"/><path data-name="Path 13" d="M21.53 8.275h-9.454a.687.687 0 01-.686-.686V5.046a.687.687 0 01.686-.686h9.454a.687.687 0 01.686.686v2.543a.687.687 0 01-.686.686zm-9.428-.712h9.4V5.072h-9.4z"/><path data-name="Path 14" d="M21.074 10.886h-.591a.356.356 0 110-.712h.593a.356.356 0 110 .712z"/><path data-name="Path 15" d="M17.099 10.886h-.593a.356.356 0 110-.712h.593a.356.356 0 010 .712z"/><path data-name="Path 16" d="M13.125 10.886h-.593a.356.356 0 010-.712h.593a.356.356 0 010 .712z"/><path data-name="Path 17" d="M21.074 13.704h-.591a.356.356 0 110-.712h.593a.356.356 0 110 .712z"/><path data-name="Path 18" d="M17.099 13.704h-.593a.356.356 0 110-.712h.593a.356.356 0 010 .712z"/><path data-name="Path 19" d="M13.125 13.704h-.593a.356.356 0 010-.712h.593a.356.356 0 010 .712z"/><path data-name="Path 20" d="M21.074 16.521h-.591a.356.356 0 110-.712h.593a.356.356 0 110 .712z"/><path data-name="Path 21" d="M17.099 16.521h-.593a.356.356 0 110-.712h.593a.356.356 0 010 .712z"/><path data-name="Path 22" d="M13.125 16.521h-.593a.356.356 0 010-.712h.593a.356.356 0 010 .712z"/></g></svg>