<svg xmlns="http://www.w3.org/2000/svg" width="56" height="56" viewBox="0 0 42 42"><path d="M15.75 42h-.031a.876.876 0 01-.844-.902v-.004a4.742 4.742 0 012.172-4.219.874.874 0 01.902 1.5 3.105 3.105 0 00-1.324 2.781.875.875 0 01-.875.844zm0 0" fill="#00897b"/><path d="M29.508 16.879a3.884 3.884 0 00-2.578-1.094 3.064 3.064 0 00-2.313.738c-.332.32-.508.774-.472 1.235.05.476.277.914.628 1.234 1.18 1.184.965 2.156-.89 4.012a.876.876 0 00.883 1.457c1.558-.496 5.25-1.914 5.859-4.375a3.296 3.296 0 00-1.117-3.207zm0 0" fill="#009688"/><path d="M40.25 10.5a10.447 10.447 0 01-5.031-2.57 10.496 10.496 0 00-5.469-2.68c-2.82 0-7.3 2.5-8.75 3.352-1.45-.852-5.93-3.352-8.75-3.352a10.496 10.496 0 00-5.469 2.68A10.447 10.447 0 011.75 10.5a.874.874 0 00-.875.875c0 .414.293.773.7.86A109.088 109.088 0 0021 14a108.726 108.726 0 0019.426-1.766.88.88 0 00.683-1.035.878.878 0 00-.859-.699zm0 0" fill="#b0bec5"/><path d="M25.375 4.375A4.373 4.373 0 0121 8.75a4.373 4.373 0 01-4.375-4.375A4.373 4.373 0 0121 0a4.373 4.373 0 014.375 4.375zm0 0" fill="#607d8b"/><path d="M21 42a.874.874 0 01-.875-.875V7.875c0-.484.39-.875.875-.875.484 0 .875.39.875.875v33.25c0 .484-.39.875-.875.875zm0 0" fill="#607d8b"/><path d="M28.754 29.586c-.336-2.543-3.887-3.773-6.234-4.582-.477-.168-.887-.309-1.168-.43-2.036-.898-4.391-2.765-4.645-4.199-.09-.516.113-1.04.523-1.36a1.64 1.64 0 00.23-2.425 3.819 3.819 0 00-4.929.277 3.012 3.012 0 00-1.07 2.965c.805 3.578 8.344 6.086 9.262 6.379.308.133.73.281 1.222.453 1.707.59 4.875 1.688 5.078 3.16.118.914-.949 2.188-3.011 3.586a.878.878 0 00-.235 1.215.879.879 0 001.22.234c2.75-1.875 3.98-3.597 3.757-5.273zm0 0" fill="#00897b"/><path d="M26.25 42a.876.876 0 01-.863-1.035c.015-.102.36-2.77-4.64-4.25-4.93-1.461-7.442-3.203-7.68-5.328-.196-1.75 1.152-3.434 4.003-5.028a.877.877 0 011.192.336.878.878 0 01-.34 1.192c-2.082 1.168-3.219 2.37-3.117 3.308.07.602.828 2.176 6.441 3.84 6.586 1.95 5.895 6.074 5.86 6.25a.874.874 0 01-.856.715zm0 0" fill="#009688"/></svg>