<?xml version="1.0" encoding="UTF-8"?>
<svg xmlns="http://www.w3.org/2000/svg" xmlns:xlink="http://www.w3.org/1999/xlink" width="42pt" height="42pt" viewBox="0 0 42 42" version="1.1">
<g id="surface1">
<path style=" stroke:none;fill-rule:nonzero;fill:rgb(0%,53.72549%,48.235294%);fill-opacity:1;" d="M 15.75 42 L 15.71875 42 C 15.238281 41.984375 14.859375 41.578125 14.875 41.097656 C 14.875 41.097656 14.875 41.09375 14.875 41.09375 C 14.792969 39.402344 15.621094 37.789062 17.046875 36.875 C 17.46875 36.632812 18.003906 36.777344 18.242188 37.195312 C 18.480469 37.601562 18.347656 38.125 17.949219 38.375 C 17.046875 39.003906 16.542969 40.058594 16.625 41.15625 C 16.609375 41.625 16.222656 42 15.75 42 Z M 15.75 42 "/>
<path style=" stroke:none;fill-rule:nonzero;fill:rgb(0%,58.823529%,53.333333%);fill-opacity:1;" d="M 29.507812 16.878906 C 28.816406 16.207031 27.894531 15.816406 26.929688 15.785156 C 26.089844 15.703125 25.253906 15.96875 24.617188 16.523438 C 24.285156 16.84375 24.109375 17.296875 24.144531 17.757812 C 24.195312 18.234375 24.421875 18.671875 24.773438 18.992188 C 25.953125 20.175781 25.738281 21.148438 23.882812 23.003906 C 23.539062 23.347656 23.539062 23.902344 23.878906 24.242188 C 24.042969 24.40625 24.265625 24.5 24.5 24.5 C 24.589844 24.5 24.679688 24.488281 24.765625 24.460938 C 26.324219 23.964844 30.015625 22.546875 30.625 20.085938 C 30.875 18.894531 30.445312 17.660156 29.507812 16.878906 Z M 29.507812 16.878906 "/>
<path style=" stroke:none;fill-rule:nonzero;fill:rgb(69.019608%,74.509804%,77.254902%);fill-opacity:1;" d="M 40.25 10.5 C 38.367188 10.121094 36.625 9.230469 35.21875 7.929688 C 33.699219 6.515625 31.796875 5.582031 29.75 5.25 C 26.929688 5.25 22.449219 7.75 21 8.601562 C 19.550781 7.75 15.070312 5.25 12.25 5.25 C 10.203125 5.582031 8.300781 6.515625 6.78125 7.929688 C 5.375 9.230469 3.632812 10.121094 1.75 10.5 C 1.265625 10.5 0.875 10.890625 0.875 11.375 C 0.875 11.789062 1.167969 12.148438 1.574219 12.234375 C 7.984375 13.402344 14.484375 13.992188 21 14 C 27.515625 13.996094 34.015625 13.402344 40.425781 12.234375 C 40.898438 12.136719 41.203125 11.675781 41.109375 11.199219 C 41.023438 10.792969 40.667969 10.5 40.25 10.5 Z M 40.25 10.5 "/>
<path style=" stroke:none;fill-rule:nonzero;fill:rgb(37.647059%,49.019608%,54.509804%);fill-opacity:1;" d="M 25.375 4.375 C 25.375 6.792969 23.417969 8.75 21 8.75 C 18.582031 8.75 16.625 6.792969 16.625 4.375 C 16.625 1.957031 18.582031 0 21 0 C 23.417969 0 25.375 1.957031 25.375 4.375 Z M 25.375 4.375 "/>
<path style=" stroke:none;fill-rule:nonzero;fill:rgb(37.647059%,49.019608%,54.509804%);fill-opacity:1;" d="M 21 42 C 20.515625 42 20.125 41.609375 20.125 41.125 L 20.125 7.875 C 20.125 7.390625 20.515625 7 21 7 C 21.484375 7 21.875 7.390625 21.875 7.875 L 21.875 41.125 C 21.875 41.609375 21.484375 42 21 42 Z M 21 42 "/>
<path style=" stroke:none;fill-rule:nonzero;fill:rgb(0%,53.72549%,48.235294%);fill-opacity:1;" d="M 28.753906 29.585938 C 28.417969 27.042969 24.867188 25.8125 22.519531 25.003906 C 22.042969 24.835938 21.632812 24.695312 21.351562 24.574219 C 19.316406 23.675781 16.960938 21.808594 16.707031 20.375 C 16.617188 19.859375 16.820312 19.335938 17.230469 19.015625 C 17.957031 18.476562 18.109375 17.453125 17.574219 16.726562 C 17.539062 16.679688 17.5 16.632812 17.460938 16.589844 C 15.96875 15.464844 13.882812 15.582031 12.53125 16.867188 C 11.644531 17.574219 11.230469 18.722656 11.460938 19.832031 C 12.265625 23.410156 19.804688 25.917969 20.722656 26.210938 C 21.03125 26.34375 21.453125 26.492188 21.945312 26.664062 C 23.652344 27.253906 26.820312 28.351562 27.023438 29.824219 C 27.140625 30.738281 26.074219 32.011719 24.011719 33.410156 C 23.613281 33.679688 23.507812 34.226562 23.777344 34.625 C 24.050781 35.027344 24.59375 35.128906 24.996094 34.859375 C 27.746094 32.984375 28.976562 31.261719 28.753906 29.585938 Z M 28.753906 29.585938 "/>
<path style=" stroke:none;fill-rule:nonzero;fill:rgb(0%,58.823529%,53.333333%);fill-opacity:1;" d="M 26.25 42 C 26.195312 42 26.140625 41.996094 26.085938 41.984375 C 25.613281 41.894531 25.296875 41.4375 25.386719 40.964844 C 25.402344 40.863281 25.746094 38.195312 20.746094 36.714844 C 15.816406 35.253906 13.304688 33.511719 13.066406 31.386719 C 12.871094 29.636719 14.21875 27.953125 17.070312 26.359375 C 17.492188 26.125 18.023438 26.273438 18.261719 26.695312 C 18.496094 27.117188 18.34375 27.652344 17.921875 27.886719 C 15.839844 29.054688 14.703125 30.257812 14.804688 31.195312 C 14.875 31.796875 15.632812 33.371094 21.246094 35.035156 C 27.832031 36.984375 27.140625 41.109375 27.105469 41.285156 C 27.027344 41.699219 26.671875 41.996094 26.25 42 Z M 26.25 42 "/>
</g>
</svg>
